<?xml version="1.0" encoding="utf-8"?>
<!-- Svg Vector Icons : http://www.onlinewebfonts.com/icon -->
<!DOCTYPE svg PUBLIC "-//W3C//DTD SVG 1.1//EN" "http://www.w3.org/Graphics/SVG/1.1/DTD/svg11.dtd">
<svg version="1.1" xmlns="http://www.w3.org/2000/svg" xmlns:xlink="http://www.w3.org/1999/xlink" x="0px" y="0px" viewBox="0 0 1000 1000" enable-background="new 0 0 1000 1000" xml:space="preserve">
<metadata> Svg Vector Icons : http://www.onlinewebfonts.com/icon </metadata>
<g><path d="M722.4,599.9c-2.4,0-4.8-0.2-7.2-0.7c-19.6-4-32.3-23.1-28.3-42.7c4.3-21.1,6.4-42.7,6.4-64.2c0-68.3-21.2-133.9-61.4-189.8c-11.7-16.2-8-38.8,8.3-50.5c16.2-11.7,38.8-8,50.5,8.3c49,68.2,74.9,148.5,74.9,232c0,26.4-2.6,52.8-7.9,78.6C754.4,588,739.3,599.9,722.4,599.9z M904.2,761.2c-5.3,0-10.6-1.1-15.7-3.6c-18-8.7-25.6-30.3-16.9-48.3c30.6-63.5,46-131.7,46-202.5c0-113.8-41.6-223.8-117.1-309.9c-13.2-15.1-11.7-37.9,3.4-51.1c15-13.2,37.9-11.7,51.1,3.3C942,248.4,990,375.4,990,506.7c0,81.8-17.9,160.5-53.2,233.9C930.7,753.6,917.7,761.2,904.2,761.2z M879,934c-9.3,0-18.5-3.5-25.6-10.6L57.8,127.8c-14.1-14.1-14.1-37,0-51.2c14.1-14.2,37-14.2,51.2,0l795.6,795.6c14.2,14.2,14.2,37,0,51.2C897.5,930.5,888.3,934,879,934z M495.3,29.8c-24.4,0-51.7,14-76.8,39.7L312.9,178.2l240.2,240.2V92.8C553.1,55.7,529.3,29.8,495.3,29.8z M10,388.6v221.8c0,59.6,47.7,106.3,108.6,106.3h92.8l207.2,214.9c24.4,24.9,51.2,38.6,75.6,38.6c34.6,0,58.8-26.3,58.8-64V725.5L110.6,283C53.7,287,10,331.6,10,388.6z"/></g>
</svg>